<svg width="40" height="40" viewBox="0 0 40 40" fill="none" xmlns="http://www.w3.org/2000/svg">
<path d="M15.6161 6.49601C12.1361 7.68801 9.16807 10.296 7.52007 13.584C6.94407 14.72 6.52807 15.928 6.28007 17.176C5.64807 20.28 6.08807 23.584 7.52007 26.416C8.44807 28.264 9.78407 29.904 11.4001 31.184C12.9281 32.4 14.7041 33.296 16.5921 33.8C18.9681 34.44 21.5041 34.424 23.9041 33.88C26.0721 33.384 28.1201 32.344 29.7521 30.84C31.4801 29.248 32.7121 27.16 33.3681 24.912C34.0801 22.456 34.1761 19.84 33.7281 17.328C29.2481 17.328 24.7681 17.328 20.2801 17.328C20.2801 19.184 20.2801 21.048 20.2801 22.904C22.8721 22.904 25.4721 22.904 28.0641 22.904C27.7601 24.688 26.7041 26.312 25.2001 27.32C24.2561 27.952 23.1761 28.368 22.0561 28.56C20.9281 28.752 19.7681 28.776 18.6481 28.552C17.5041 28.328 16.4161 27.848 15.4641 27.176C13.9441 26.112 12.7841 24.544 12.1921 22.792C11.5841 21.008 11.5761 19.016 12.1921 17.232C12.6161 15.976 13.3281 14.808 14.2641 13.864C15.4161 12.68 16.9121 11.84 18.5281 11.496C19.9121 11.2 21.3681 11.256 22.7201 11.664C23.8721 12.016 24.9281 12.64 25.8001 13.472C26.6801 12.6 27.5521 11.72 28.4321 10.848C28.8881 10.376 29.3761 9.92801 29.8241 9.44001C28.4961 8.20801 26.9281 7.21601 25.2241 6.59201C22.1681 5.44801 18.7041 5.42401 15.6161 6.49601Z" fill="white"/>
<path d="M15.6161 6.49596C18.7041 5.42396 22.1681 5.44796 25.2401 6.58396C26.9441 7.20796 28.5041 8.19996 29.8401 9.43196C29.3921 9.91196 28.9121 10.368 28.4481 10.84C27.5681 11.712 26.6961 12.592 25.8161 13.464C24.9441 12.632 23.8881 12 22.7361 11.656C21.3841 11.248 19.9281 11.192 18.5441 11.488C16.9281 11.832 15.4321 12.68 14.2801 13.856C13.3441 14.8 12.6321 15.968 12.2081 17.224C10.6481 16.016 9.08808 14.8 7.52808 13.592C9.16808 10.296 12.1361 7.68796 15.6161 6.49596Z" fill="#E94435"/>
<path d="M6.28007 17.176C6.52807 15.928 6.95207 14.72 7.52007 13.584C9.08007 14.792 10.6401 16.008 12.2001 17.216C11.5841 19 11.5921 20.992 12.2001 22.776C10.6401 23.984 9.08007 25.2 7.52007 26.408C6.08807 23.592 5.64807 20.28 6.28007 17.176Z" fill="#F8BB15"/>
<path d="M20.2881 17.3203C24.7681 17.3203 29.2481 17.3203 33.7361 17.3203C34.1841 19.8323 34.0881 22.4483 33.3761 24.9043C32.7201 27.1523 31.4881 29.2483 29.7601 30.8323C28.2481 29.6563 26.7281 28.4803 25.2241 27.3043C26.7281 26.3043 27.7841 24.6723 28.0881 22.8883C25.4961 22.8883 22.8961 22.8883 20.3041 22.8883C20.2801 21.0403 20.2881 19.1843 20.2881 17.3203Z" fill="#547DBE"/>
<path d="M7.52002 26.4157C9.08002 25.2077 10.64 23.9917 12.2 22.7837C12.792 24.5437 13.952 26.1037 15.472 27.1677C16.424 27.8397 17.512 28.3117 18.656 28.5437C19.776 28.7677 20.944 28.7437 22.064 28.5517C23.184 28.3597 24.264 27.9437 25.208 27.3117C26.72 28.4877 28.24 29.6637 29.744 30.8397C28.112 32.3517 26.064 33.3837 23.896 33.8797C21.504 34.4237 18.968 34.4397 16.584 33.7997C14.696 33.2957 12.92 32.3997 11.392 31.1837C9.78402 29.8957 8.44802 28.2557 7.52002 26.4157Z" fill="#34A751"/>
</svg>
